PathFileType	4	(X/Y/Z)	anato.trc
DataRate	CameraRate	NumFrames	NumMarkers	Units	OrigDataRate	OrigDataStartFrame	OrigNumFrames
100.0	100.0	8	17	mm	100.0	78	618
Frame#	Time	STER			XIPH			T10			T1			CLAV_SC			CLAV_AC			SCAP_AA			SCAP_CP			SCAP_TS			SCAP_IA			DELT			ARMl			EPICm			EPICl			LARM_elb			STYLr			STYLu		
		X1	Y1	Z1	X2	Y2	Z2	X3	Y3	Z3	X4	Y4	Z4	X5	Y5	Z5	X6	Y6	Z6	X7	Y7	Z7	X8	Y8	Z8	X9	Y9	Z9	X10	Y10	Z10	X11	Y11	Z11	X12	Y12	Z12	X13	Y13	Z13	X14	Y14	Z14	X15	Y15	Z15	X16	Y16	Z16	X17	Y17	Z17

78	0.77	377.9532470703125	43.258567810058594	1434.829833984375	386.5725402832031	91.53224182128906	1275.91748046875	375.852783203125	-142.5498046875	1236.704345703125	374.8575744628906	-118.71944427490234	1478.085205078125	413.26806640625	33.81409454345703	1443.1986083984375	568.9591674804688	-38.647762298583984	1466.02197265625	575.7474365234375	-85.00167083740234	1452.628173828125	518.922119140625	-91.15618133544922	1481.621826171875	506.8567810058594	-149.3770751953125	1428.5001220703125	488.7436218261719	-162.4471893310547	1285.2015380859375	652.4743041992188	-66.81716918945312	1323.0230712890625	671.349853515625	-79.55572509765625	1277.7310791015625	673.0706787109375	-27.89983558654785	1118.0150146484375	737.8134155273438	-86.16365051269531	1176.1585693359375	689.0703735351562	-71.33356475830078	1111.704345703125	924.6044921875	36.049964904785156	1002.1170654296875	866.8197021484375	5.027559757232666	953.248046875
79	0.78	377.979736328125	43.35952377319336	1434.8492431640625	386.5914611816406	91.58919525146484	1275.91259765625	375.8657531738281	-142.50404357910156	1236.73388671875	374.8868408203125	-118.63300323486328	1478.109619140625	413.3350524902344	33.91923141479492	1443.2103271484375	568.95654296875	-38.568363189697266	1466.0101318359375	575.7509155273438	-84.92329406738281	1452.6446533203125	518.92529296875	-91.07012176513672	1481.6483154296875	506.865966796875	-149.3027801513672	1428.5203857421875	488.7409362792969	-162.38967895507812	1285.2890625	652.4810180664062	-66.72550201416016	1323.04736328125	671.3568115234375	-79.45703887939453	1277.741943359375	673.054443359375	-27.872215270996094	1118.03955078125	737.8250732421875	-86.07221984863281	1176.16748046875	689.0787353515625	-71.23857879638672	1111.721923828125	924.6925048828125	36.21308517456055	1002.0731201171875	866.86474609375	5.134051322937012	953.2818603515625
80	0.79	378.0100402832031	43.43063735961914	1434.8505859375	386.6287841796875	91.63331604003906	1275.909912109375	375.87255859375	-142.45742797851562	1236.736572265625	374.882568359375	-118.56031799316406	1478.12744140625	413.3360595703125	33.99296188354492	1443.190185546875	568.9470825195312	-38.47776412963867	1466.031494140625	575.8035888671875	-84.82929229736328	1452.6597900390625	518.9135131835938	-91.00020599365234	1481.6456298828125	506.9198303222656	-149.21119689941406	1428.4818115234375	488.746826171875	-162.3324737548828	1285.3287353515625	652.502685546875	-66.64411163330078	1323.07177734375	671.3623046875	-79.3896484375	1277.771728515625	672.1917724609375	-28.228986740112305	1117.74609375	737.843017578125	-85.98492431640625	1176.209228515625	689.0966186523438	-71.1476058959961	1111.7354736328125	924.650146484375	36.33158493041992	1002.095458984375	866.8809814453125	5.207302570343018	953.3351440429688
81	0.8	377.99993896484375	43.52412033081055	1434.845458984375	386.6204833984375	91.68985748291016	1275.8818359375	375.9040832519531	-142.39768981933594	1236.7698974609375	374.8739013671875	-118.48749542236328	1478.130615234375	413.3516540527344	34.080535888671875	1443.2076416015625	568.947265625	-38.407440185546875	1466.0322265625	575.797607421875	-84.77523803710938	1452.7308349609375	518.9188232421875	-90.92578887939453	1481.6739501953125	506.904052734375	-149.13766479492188	1428.5203857421875	488.8462219238281	-162.28797912597656	1285.3377685546875	652.521728515625	-66.56333923339844	1323.1080322265625	671.3926391601562	-79.31033325195312	1277.8111572265625	673.2955322265625	-27.61625862121582	1118.0859375	737.8756103515625	-85.9084243774414	1176.224853515625	689.1156005859375	-71.08956146240234	1111.768310546875	924.6862182617188	36.40992736816406	1002.1233520507812	866.9144897460938	5.294151306152344	953.348876953125
82	0.81	378.01904296875	43.58072280883789	1434.84130859375	386.6310729980469	91.74439239501953	1275.88671875	375.91455078125	-142.35006713867188	1236.752685546875	374.8813171386719	-118.39932250976562	1478.1473388671875	413.3074035644531	34.14630889892578	1443.2208251953125	568.9945678710938	-38.33266067504883	1466.0509033203125	575.790771484375	-84.67467498779297	1452.703369140625	518.9356689453125	-90.83489990234375	1481.6986083984375	506.9078063964844	-149.07037353515625	1428.576171875	488.73779296875	-162.23001098632812	1285.3582763671875	652.5134887695312	-66.52951049804688	1323.3427734375	671.4150390625	-79.2484130859375	1277.8216552734375	672.3117065429688	-28.02107048034668	1117.7781982421875	737.9014892578125	-85.8285903930664	1176.22119140625	689.1300048828125	-70.99053955078125	1111.769775390625	924.77685546875	36.49351501464844	1002.1691284179688	866.9290161132812	5.406881809234619	953.3865966796875
83	0.8200000000000001	378.03900146484375	43.63316345214844	1434.8251953125	386.6656188964844	91.78949737548828	1275.884033203125	375.9227600097656	-142.30503845214844	1236.7843017578125	374.88836669921875	-118.34872436523438	1478.162353515625	413.31585693359375	34.20437240600586	1443.1435546875	568.9447021484375	-38.25913619995117	1466.085693359375	575.7959594726562	-84.5948257446289	1452.7247314453125	518.9237060546875	-90.7656478881836	1481.7174072265625	506.9087219238281	-149.01263427734375	1428.621826171875	488.8707580566406	-162.1555633544922	1285.37451171875	652.5227661132812	-66.46916198730469	1323.371337890625	671.416015625	-79.18006134033203	1277.8426513671875	673.255615234375	-27.495023727416992	1118.1744384765625	737.9483642578125	-85.75455474853516	1176.3150634765625	689.1654663085938	-70.92633056640625	1111.802001953125	924.7432861328125	36.56187057495117	1002.1777954101562	867.0006713867188	5.504037380218506	953.4445190429688
84	0.8300000000000001	378.025390625	43.70486831665039	1434.7950439453125	386.6775817871094	91.84793853759766	1275.878662109375	375.9335632324219	-142.258056640625	1236.7825927734375	374.9172058105469	-118.26139068603516	1478.1895751953125	413.2755432128906	34.25675964355469	1443.1226806640625	568.974853515625	-38.193519592285156	1466.0513916015625	575.78759765625	-84.55241394042969	1452.7545166015625	518.9264526367188	-90.70298767089844	1481.7222900390625	506.9053649902344	-148.94012451171875	1428.587646484375	488.85015869140625	-162.1080780029297	1285.3670654296875	653.4918823242188	-66.3119888305664	1323.4034423828125	671.4452514648438	-79.11283111572266	1277.865966796875	672.9879150390625	-27.586240768432617	1118.15625	737.9733276367188	-85.70361328125	1176.285888671875	689.2077026367188	-70.859619140625	1111.8192138671875	924.7504272460938	36.63068771362305	1002.2098388671875	867.0643920898438	5.53682279586792	953.4987182617188
85	0.84	378.0201110839844	43.7667350769043	1434.7796630859375	386.67291259765625	91.91008758544922	1275.8656005859375	375.9534912109375	-142.20643615722656	1236.81494140625	374.8863525390625	-118.19341278076172	1478.2041015625	413.387451171875	34.32327651977539	1443.12939453125	568.9767456054688	-38.1385383605957	1466.06298828125	575.7235717773438	-84.35623931884766	1452.6708984375	518.9244995117188	-90.63377380371094	1481.7406005859375	506.9134826660156	-148.8687744140625	1428.625244140625	488.87274169921875	-162.04994201660156	1285.41455078125	652.5244140625	-66.3639144897461	1323.39501953125	671.46435546875	-79.0665283203125	1277.8804931640625	673.3118896484375	-27.375967025756836	1118.271484375	738.017822265625	-85.63774871826172	1176.350341796875	689.2274169921875	-70.806884765625	1111.8343505859375	924.841796875	36.69317626953125	1002.2676391601562	867.0735473632812	5.611507892608643	953.5381469726562
